<?xml version="1.0" encoding="iso-8859-1"?>
<!-- Generator: Adobe Illustrator 19.0.0, SVG Export Plug-In . SVG Version: 6.00 Build 0)  -->
<svg version="1.1" id="Layer_1" xmlns="http://www.w3.org/2000/svg" xmlns:xlink="http://www.w3.org/1999/xlink" x="0px" y="0px"
	 viewBox="0 0 512 512" style="enable-background:new 0 0 512 512;" xml:space="preserve">
<g>
	<polygon style="fill:#6C747A;" points="458.667,512 437.333,512 437.333,79.083 379.584,21.333 74.667,21.333 74.667,490.667 
		352,490.667 352,512 53.333,512 53.333,0 388.416,0 458.667,70.251 	"/>
	<polygon style="fill:#6C747A;" points="448,85.333 373.333,85.333 373.333,10.667 394.667,10.667 394.667,64 448,64 	"/>
	<path style="fill:#6C747A;" d="M416,469.333h-53.333c-8.544,0-16.587-3.339-22.624-9.376c-6.037-6.037-9.376-14.08-9.376-22.624
		v-128H352v128c0,2.848,1.109,5.525,3.125,7.541s4.693,3.125,7.541,3.125H416V469.333z"/>
</g>
<linearGradient id="SVGID_1_" gradientUnits="userSpaceOnUse" x1="-9.4063" y1="610.9688" x2="-5.4063" y2="610.9688" gradientTransform="matrix(10.6667 0 0 -10.6667 473.6667 6826.3335)">
	<stop  offset="0" style="stop-color:#73DBE6"/>
	<stop  offset="1" style="stop-color:#CAE6B8"/>
</linearGradient>
<polygon style="fill:url(#SVGID_1_);" points="416,149.333 394.667,106.667 373.333,149.333 373.333,512 416,512 "/>
<linearGradient id="SVGID_2_" gradientUnits="userSpaceOnUse" x1="-9.4063" y1="627.9688" x2="-5.4063" y2="627.9688" gradientTransform="matrix(10.6667 0 0 -10.6667 473.6667 6826.3335)">
	<stop  offset="0" style="stop-color:#4CC6C4"/>
	<stop  offset="1" style="stop-color:#79CFA2"/>
</linearGradient>
<polygon style="fill:url(#SVGID_2_);" points="394.667,106.667 373.333,149.333 416,149.333 "/>
<g>
	<rect x="96" y="64" style="fill:#6C747A;" width="21.333" height="21.333"/>
	<rect x="138.667" y="64" style="fill:#6C747A;" width="21.333" height="21.333"/>
	<rect x="181.333" y="64" style="fill:#6C747A;" width="21.333" height="21.333"/>
</g>
<linearGradient id="SVGID_3_" gradientUnits="userSpaceOnUse" x1="-9.4063" y1="596.9688" x2="-5.4063" y2="596.9688" gradientTransform="matrix(10.6667 0 0 -10.6667 473.6667 6826.3335)">
	<stop  offset="0" style="stop-color:#31646F"/>
	<stop  offset="1" style="stop-color:#566958"/>
</linearGradient>
<rect x="373.333" y="448" style="fill:url(#SVGID_3_);" width="42.667" height="21.333"/>
<g>
</g>
<g>
</g>
<g>
</g>
<g>
</g>
<g>
</g>
<g>
</g>
<g>
</g>
<g>
</g>
<g>
</g>
<g>
</g>
<g>
</g>
<g>
</g>
<g>
</g>
<g>
</g>
<g>
</g>
</svg>
