<?xml version="1.0" encoding="iso-8859-1"?>
<!-- Generator: Adobe Illustrator 19.0.0, SVG Export Plug-In . SVG Version: 6.00 Build 0)  -->
<svg version="1.1" id="Layer_1" xmlns="http://www.w3.org/2000/svg" xmlns:xlink="http://www.w3.org/1999/xlink" x="0px" y="0px"
	 viewBox="0 0 512 512" style="enable-background:new 0 0 512 512;" xml:space="preserve">
<path style="fill:#6C747A;" d="M469.333,458.667H42.667v-21.333c5.696,0,11.051-2.219,15.083-6.251S64,421.696,64,416V138.667h448
	V416c0,11.392-4.437,22.101-12.501,30.165C491.435,454.229,480.725,458.667,469.333,458.667z M79.637,437.333h389.696
	c5.696,0,11.051-2.219,15.083-6.251c4.032-4.032,6.251-9.387,6.251-15.083V160H85.333v256
	C85.333,423.616,83.349,430.912,79.637,437.333z"/>
<linearGradient id="SVGID_1_" gradientUnits="userSpaceOnUse" x1="-40.4063" y1="616.9688" x2="-18.4063" y2="616.9688" gradientTransform="matrix(10.6667 0 0 -10.6667 473.6667 6826.3335)">
	<stop  offset="0" style="stop-color:#FD6330"/>
	<stop  offset="1" style="stop-color:#FD8530"/>
</linearGradient>
<rect x="42.667" y="181.333" style="fill:url(#SVGID_1_);" width="234.667" height="128"/>
<g>
	<rect x="117.333" y="213.333" style="fill:#FFFFFF;" width="128" height="21.333"/>
	<rect x="117.333" y="256" style="fill:#FFFFFF;" width="64" height="21.333"/>
</g>
<path style="fill:#6C747A;" d="M42.667,458.667c-11.392,0-22.112-4.437-30.165-12.501C4.437,438.101,0,427.392,0,416V96h42.667
	V85.333c0-8.544,3.328-16.587,9.376-22.624c6.037-6.048,14.08-9.376,22.624-9.376h106.667c8.544,0,16.587,3.328,22.624,9.376
	c6.048,6.037,9.376,14.08,9.376,22.624V96H512v21.333H192v-32c0-2.848-1.109-5.525-3.125-7.541
	c-2.016-2.016-4.693-3.125-7.541-3.125H74.667c-2.848,0-5.525,1.109-7.541,3.125C65.109,79.808,64,82.485,64,85.333v32H21.333V416
	c0,5.696,2.219,11.051,6.251,15.083c4.032,4.032,9.387,6.251,15.083,6.251V458.667z"/>
<rect x="64" y="181.333" style="fill:#6B3917;" width="21.333" height="128"/>
<g>
</g>
<g>
</g>
<g>
</g>
<g>
</g>
<g>
</g>
<g>
</g>
<g>
</g>
<g>
</g>
<g>
</g>
<g>
</g>
<g>
</g>
<g>
</g>
<g>
</g>
<g>
</g>
<g>
</g>
</svg>
